<?xml version="1.0" encoding="UTF-8"?>
<svg id="Food_Delivery_Part_1" data-name="Food Delivery Part 1" xmlns="http://www.w3.org/2000/svg" width="20.68" height="15.3" viewBox="0 0 20.68 15.3">
  <path d="M0,0V1.65H7.44v.83H0v.83H6.2v.83H0v.83H4.96v.83H0v.83H3.72v.83H0v4.55c0,.68,.56,1.24,1.24,1.24h1.69c.2,1.17,1.22,2.07,2.44,2.07s2.25-.89,2.44-2.07h5V1.2c0-.64-.56-1.2-1.2-1.2H0ZM13.65,2.89V13.23h.45c.2,1.17,1.21,2.07,2.44,2.07s2.24-.9,2.44-2.07h.45c.64,0,1.24-.6,1.24-1.24v-3.97c0-.81-.58-1.68-.66-1.78l-1.71-2.29c-.32-.4-.97-1.06-1.77-1.06h-2.89Zm2.07,.83h.83c.33,0,.74,.29,1.11,.75l1.69,2.26c.12,.18,.42,.68,.49,1.12h-3.71c-.19,0-.41-.23-.41-.41V3.72ZM5.38,11.16c.92,0,1.65,.73,1.65,1.65s-.73,1.65-1.65,1.65-1.65-.73-1.65-1.65,.73-1.65,1.65-1.65Zm11.16,0c.91,0,1.65,.74,1.65,1.65s-.74,1.65-1.65,1.65-1.65-.74-1.65-1.65,.74-1.65,1.65-1.65Z"/>
</svg>