<?xml version="1.0" encoding="UTF-8"?>
<svg id="Layer_1" data-name="Layer 1" xmlns="http://www.w3.org/2000/svg" width="78.69" height="80" viewBox="0 0 78.69 80">
  <defs>
    <style>
      .cls-1, .cls-2 {
        fill: #2d2d2d;
      }

      .cls-2 {
        fill-rule: evenodd;
      }
    </style>
  </defs>
  <path class="cls-1" d="M68.1,80H10.59c-5.84,0-10.59-4.83-10.59-10.76V10.76C0,4.83,4.75,0,10.59,0h57.52c5.83,0,10.58,4.83,10.58,10.76v58.48c0,5.93-4.75,10.76-10.58,10.76ZM10.59,6.23c-2.46,0-4.46,2.03-4.46,4.53v58.48c0,2.5,2,4.54,4.46,4.54h57.52c2.46,0,4.46-2.03,4.46-4.54V10.76c0-2.5-2-4.53-4.46-4.53H10.59Z"/>
  <g>
    <path class="cls-2" d="M62.3,41.04c0,12.71-10.13,23.01-22.63,23.01s-22.63-10.3-22.63-23.01,10.13-23.01,22.63-23.01,22.63,10.3,22.63,23.01Z"/>
    <path class="cls-1" d="M39.67,67.72c-14.47,0-26.24-11.97-26.24-26.68S25.2,14.35,39.67,14.35s26.24,11.97,26.24,26.68-11.77,26.68-26.24,26.68Zm0-46.02c-10.48,0-19.02,8.67-19.02,19.33s8.53,19.33,19.02,19.33,19.02-8.67,19.02-19.33-8.53-19.33-19.02-19.33Z"/>
  </g>
  <path class="cls-2" d="M67.38,15.78c0,2.49-1.98,4.51-4.43,4.51s-4.43-2.02-4.43-4.51,1.98-4.51,4.43-4.51,4.43,2.02,4.43,4.51Z"/>
</svg>