<?xml version="1.0" encoding="UTF-8"?>
<svg id="Food_Delivery_Part_1" data-name="Food Delivery Part 1" xmlns="http://www.w3.org/2000/svg" width="18" height="18" viewBox="0 0 18 18">
  <path d="M14,18H6c-.2,0-.3,0-.4-.1l-1.6-.8c-.2-.1-.3-.1-.5-.1H1c-.6,0-1-.4-1-1H0c0-.6,.4-1,1-1h3c.2,0,.3,0,.4,.1l1.6,.8c.2,.1,.3,.1,.5,.1h6.5c.3,0,.6-.2,.8-.4l1.2-1.8c.1-.1,.1-.3,.2-.4l.7-4.2c.1-.6-.4-1.2-1-1.2h-4.9c-.7,0-1.1-.6-1-1.2l1-3.9v-.9h-1.6c-.4,0-.8,.3-.9,.7l-.6,1.7s0,.1-.1,.1l-2,3.9c-.1,.4-.4,.6-.8,.6H1c-.6,0-1-.4-1-1H0c0-.6,.4-1,1-1h1.8c.4,0,.7-.2,.9-.6l1.3-2.7s0-.1,.1-.1L6.1,.7c.1-.4,.5-.7,.9-.7h3c1.1,0,2,.9,2,2v1.3l-.4,1.4c-.2,.6,.3,1.2,1,1.2h3.4c1.1,0,2,.9,2,2v.2l-1,6c0,.1-.1,.3-.2,.4l-2,3c-.2,.3-.5,.5-.8,.5Z"/>
  <rect y="6" width="2" height="12"/>
</svg>