<?xml version="1.0" encoding="UTF-8"?>
<svg id="Layer_1" data-name="Layer 1" xmlns="http://www.w3.org/2000/svg" width="62.35" height="80" viewBox="0 0 62.35 80">
  <defs>
    <style>
      .cls-1 {
        fill: #2d2d2d;
        fill-rule: evenodd;
      }
    </style>
  </defs>
  <path class="cls-1" d="M33.06,0C11.08,0,0,15.65,0,28.7c0,2.41,.28,4.74,.86,6.89,1.3,4.89,4.12,8.84,8.61,10.66,1.07,.43,2.02,.02,2.32-1.15,.22-.81,.72-2.84,.95-3.69,.3-1.15,.19-1.55-.67-2.55-1.12-1.31-1.99-2.86-2.51-4.75-.35-1.26-.55-2.66-.55-4.26,0-11.62,8.75-22.01,22.78-22.01,12.43,0,19.25,7.54,19.25,17.61,0,2.97-.29,5.83-.85,8.49-1.93,9.21-7.01,15.94-13.81,15.94-4.85,0-8.47-3.97-7.31-8.84,.67-2.78,1.62-5.65,2.45-8.36,.9-2.98,1.64-5.75,1.64-7.95,0-3.76-2.04-6.89-6.24-6.89-4.95,0-8.93,5.08-8.93,11.89,0,1.28,.13,2.43,.31,3.43,.44,2.38,1.17,3.84,1.17,3.84,0,0-5.07,21.3-5.95,25.04-1.76,7.43-.27,16.55-.14,17.46,.07,.54,.78,.67,1.1,.26,.46-.6,6.35-7.82,8.36-15.03,.57-2.05,3.25-12.63,3.25-12.63,1.61,3.04,6.31,5.72,11.3,5.72,12.12,0,21.05-8.93,23.95-21.99,.66-2.98,1.01-6.16,1.01-9.5C62.35,12.7,50.73,0,33.06,0h0Z"/>
</svg>