<?xml version="1.0" encoding="UTF-8"?>
<svg id="Layer_1" data-name="Layer 1" xmlns="http://www.w3.org/2000/svg" width="81.73" height="80" viewBox="0 0 81.73 80">
  <defs>
    <style>
      .cls-1 {
        fill: #2d2d2d;
      }
    </style>
  </defs>
  <path class="cls-1" d="M81.73,9.47c-3.01,1.6-6.24,2.69-9.63,3.18,3.46-2.5,6.12-6.47,7.38-11.18-3.24,2.31-6.83,3.99-10.65,4.9-3.06-3.93-7.42-6.38-12.24-6.38-9.26,0-16.77,9.04-16.77,20.19,0,1.58,.15,3.13,.44,4.6C26.32,23.96,13.96,15.92,5.69,3.7c-1.44,2.98-2.27,6.45-2.27,10.15,0,7.01,2.96,13.18,7.46,16.81-2.75-.11-5.34-1.01-7.6-2.53,0,.08,0,.17,0,.26,0,9.78,5.78,17.94,13.45,19.8-1.41,.46-2.89,.71-4.42,.71-1.08,0-2.13-.13-3.15-.37,2.13,8.03,8.33,13.86,15.67,14.02-5.74,5.42-12.97,8.65-20.83,8.65-1.36,0-2.69-.09-4-.28,7.42,5.73,16.23,9.07,25.7,9.07,30.85,0,47.71-30.77,47.71-57.47,0-.87-.02-1.74-.05-2.61,3.28-2.84,6.12-6.4,8.37-10.45Z"/>
</svg>