<?xml version="1.0" encoding="UTF-8"?>
<svg id="Layer_1" data-name="Layer 1" xmlns="http://www.w3.org/2000/svg" viewBox="0 0 262.91 253.24">
  <defs>
    <style>
      .cls-1 {
        fill: #231f20;
      }

      .cls-2 {
        fill: #2d2d2d;
      }
    </style>
  </defs>
  <g>
    <path class="cls-2" d="M139.05,85.3c0-6.49-5.26-11.75-11.75-11.75s-11.75,5.26-11.75,11.75c0,4.71,2.77,8.76,6.77,10.63-.03,.11-.06,.21-.07,.32l-3.64,29.26c-.19,1.55,1.01,2.91,2.57,2.91h11.51c1.53,0,2.73-1.32,2.58-2.84l-2.89-29.26c-.01-.13-.04-.26-.08-.39,3.99-1.88,6.76-5.92,6.76-10.63Z"/>
    <path class="cls-2" d="M127.3,171.81c-36.42,0-65.94-87.71-65.94-62.83s29.52,45.05,65.94,45.05,65.94-20.17,65.94-45.05-29.52,62.83-65.94,62.83ZM60.76,92.99c0-24.88,29.52-45.05,65.94-45.05,36.42,0,65.94,20.17,65.94,45.05,0,24.88-29.52-62.83-65.94-62.83-36.42,0-65.94,87.71-65.94,62.83Z"/>
  </g>
  <g>
    <path class="cls-1" d="M22.69,209.36v-20.72H14.56v-2.28h18.93v2.28h-8.09v20.72h-2.71Z"/>
    <path class="cls-1" d="M36.52,209.36v-24.02h2.64v11.26h-.42c.46-1.28,1.22-2.26,2.3-2.92,1.08-.66,2.32-1,3.74-1,1.96,0,3.42,.53,4.37,1.58,.96,1.06,1.44,2.65,1.44,4.78v10.31h-2.64v-10.15c0-1.52-.3-2.63-.9-3.33-.6-.7-1.56-1.04-2.89-1.04-1.52,0-2.74,.47-3.64,1.4-.9,.94-1.35,2.17-1.35,3.69v9.43h-2.64Z"/>
    <path class="cls-1" d="M62.92,209.66c-2.57,0-4.59-.74-6.07-2.23-1.48-1.49-2.22-3.56-2.22-6.22,0-1.72,.33-3.21,.98-4.49,.65-1.27,1.57-2.26,2.74-2.97,1.17-.71,2.52-1.06,4.05-1.06s2.76,.32,3.79,.95c1.02,.63,1.81,1.53,2.35,2.69,.54,1.16,.82,2.54,.82,4.13v.98h-12.69v-1.66h10.96l-.55,.42c0-1.74-.39-3.1-1.17-4.08s-1.95-1.47-3.49-1.47c-1.63,0-2.9,.57-3.82,1.71s-1.37,2.68-1.37,4.62v.29c0,2.04,.51,3.59,1.52,4.65,1.01,1.06,2.43,1.58,4.26,1.58,.98,0,1.9-.15,2.76-.44,.86-.29,1.68-.78,2.46-1.45l.91,1.86c-.72,.7-1.63,1.23-2.72,1.62-1.1,.38-2.26,.57-3.48,.57Z"/>
    <path class="cls-1" d="M73.33,209.36v-12.43c0-.65-.02-1.32-.05-1.99-.03-.67-.08-1.33-.15-1.96h2.54l.33,3.98-.46,.03c.22-.98,.6-1.78,1.14-2.41,.54-.63,1.19-1.1,1.93-1.42,.74-.31,1.51-.47,2.32-.47,.33,0,.61,.01,.86,.03,.25,.02,.48,.08,.7,.16l-.03,2.35c-.33-.11-.63-.18-.9-.21-.27-.03-.58-.05-.93-.05-.96,0-1.79,.23-2.5,.69-.71,.46-1.24,1.04-1.6,1.76s-.54,1.48-.54,2.28v9.66h-2.68Z"/>
    <path class="cls-1" d="M85.24,209.36v-12.6c0-.61-.03-1.23-.08-1.88-.05-.64-.11-1.28-.18-1.91h2.54l.33,3.59h-.39c.43-1.24,1.13-2.2,2.07-2.87s2.09-1.01,3.44-1.01,2.49,.33,3.34,.98,1.44,1.66,1.75,3.03h-.49c.41-1.24,1.14-2.22,2.19-2.94,1.04-.72,2.26-1.08,3.65-1.08,1.81,0,3.17,.52,4.08,1.55,.91,1.03,1.37,2.66,1.37,4.88v10.25h-2.64v-10.08c0-1.54-.27-2.67-.82-3.38-.54-.71-1.41-1.06-2.61-1.06-1.37,0-2.45,.47-3.25,1.42-.79,.95-1.19,2.21-1.19,3.8v9.3h-2.64v-10.08c0-1.54-.27-2.67-.82-3.38-.54-.71-1.41-1.06-2.61-1.06-1.37,0-2.45,.47-3.23,1.42s-1.17,2.21-1.17,3.8v9.3h-2.64Z"/>
    <path class="cls-1" d="M120.64,209.66c-1.59,0-2.96-.34-4.13-1.03-1.16-.69-2.06-1.66-2.69-2.94-.63-1.27-.95-2.78-.95-4.52s.31-3.27,.95-4.54c.63-1.26,1.53-2.23,2.69-2.92,1.16-.69,2.53-1.03,4.1-1.03s2.96,.34,4.13,1.03c1.16,.69,2.07,1.66,2.71,2.92,.64,1.26,.96,2.77,.96,4.54s-.32,3.25-.96,4.52-1.54,2.25-2.71,2.94c-1.16,.69-2.53,1.03-4.09,1.03Zm0-2.15c1.54,0,2.77-.54,3.69-1.62s1.37-2.65,1.37-4.72-.46-3.67-1.39-4.75c-.92-1.08-2.16-1.62-3.7-1.62s-2.77,.54-3.69,1.62-1.37,2.66-1.37,4.75,.46,3.64,1.37,4.72,2.15,1.62,3.72,1.62Z"/>
    <path class="cls-1" d="M140.32,209.66c-1.85,0-3.5-.24-4.96-.72-1.46-.48-2.73-1.16-3.82-2.06l.98-2.15c.76,.57,1.53,1.04,2.3,1.42,.77,.38,1.6,.66,2.5,.85,.89,.19,1.89,.28,3,.28,1.94,0,3.37-.36,4.31-1.08,.94-.72,1.4-1.67,1.4-2.87,0-1.02-.33-1.81-.98-2.35-.65-.54-1.79-.98-3.43-1.31l-3.43-.69c-2.11-.44-3.68-1.14-4.71-2.12-1.03-.98-1.55-2.31-1.55-3.98,0-1.37,.35-2.57,1.06-3.59,.71-1.02,1.7-1.82,2.99-2.38,1.28-.57,2.77-.85,4.47-.85s3.12,.24,4.47,.73c1.35,.49,2.5,1.2,3.46,2.14l-.95,2.09c-1.02-.91-2.09-1.57-3.21-1.97-1.12-.4-2.39-.6-3.8-.6-1.78,0-3.19,.39-4.23,1.16-1.03,.77-1.55,1.82-1.55,3.15,0,1.07,.33,1.9,.98,2.5,.65,.6,1.73,1.05,3.23,1.35l3.46,.69c2.22,.46,3.85,1.14,4.89,2.06,1.04,.91,1.57,2.2,1.57,3.85,0,1.26-.34,2.38-1.03,3.36-.69,.98-1.66,1.74-2.92,2.28s-2.76,.82-4.5,.82Z"/>
    <path class="cls-1" d="M160.13,209.66c-2.57,0-4.59-.74-6.07-2.23-1.48-1.49-2.22-3.56-2.22-6.22,0-1.72,.33-3.21,.98-4.49,.65-1.27,1.57-2.26,2.74-2.97,1.17-.71,2.52-1.06,4.05-1.06s2.76,.32,3.79,.95c1.02,.63,1.81,1.53,2.35,2.69,.54,1.16,.82,2.54,.82,4.13v.98h-12.69v-1.66h10.96l-.55,.42c0-1.74-.39-3.1-1.17-4.08s-1.95-1.47-3.49-1.47c-1.63,0-2.9,.57-3.82,1.71s-1.37,2.68-1.37,4.62v.29c0,2.04,.51,3.59,1.52,4.65,1.01,1.06,2.43,1.58,4.26,1.58,.98,0,1.9-.15,2.76-.44,.86-.29,1.68-.78,2.46-1.45l.91,1.86c-.72,.7-1.63,1.23-2.72,1.62-1.1,.38-2.26,.57-3.48,.57Z"/>
    <path class="cls-1" d="M177.48,209.66c-1.61,0-3.01-.35-4.19-1.04-1.19-.7-2.1-1.69-2.74-2.97s-.96-2.81-.96-4.57,.33-3.3,.98-4.55c.65-1.25,1.57-2.2,2.76-2.85s2.57-.98,4.16-.98c1.04,0,2.06,.19,3.05,.55,.99,.37,1.81,.89,2.46,1.57l-.95,1.89c-.65-.63-1.37-1.1-2.14-1.4-.77-.3-1.53-.46-2.27-.46-1.7,0-3.01,.53-3.95,1.6-.94,1.07-1.4,2.62-1.4,4.67s.47,3.59,1.4,4.7c.94,1.11,2.25,1.66,3.95,1.66,.72,0,1.46-.14,2.24-.42,.77-.28,1.5-.75,2.17-1.4l.95,1.86c-.67,.7-1.51,1.23-2.51,1.6-1,.37-2,.55-3,.55Z"/>
    <path class="cls-1" d="M192.53,209.66c-1.94,0-3.4-.53-4.39-1.6-.99-1.07-1.48-2.7-1.48-4.89v-10.18h2.64v10.12c0,1.5,.3,2.61,.91,3.31,.61,.71,1.56,1.06,2.84,1.06,1.44,0,2.59-.47,3.46-1.4,.87-.94,1.31-2.19,1.31-3.75v-9.33h2.64v16.38h-2.58v-3.69h.42c-.46,1.26-1.19,2.24-2.2,2.94-1.01,.7-2.2,1.04-3.57,1.04Z"/>
    <path class="cls-1" d="M205.51,209.36v-12.43c0-.65-.02-1.32-.05-1.99-.03-.67-.08-1.33-.15-1.96h2.54l.33,3.98-.46,.03c.22-.98,.6-1.78,1.14-2.41,.54-.63,1.19-1.1,1.93-1.42,.74-.31,1.51-.47,2.32-.47,.33,0,.61,.01,.86,.03,.25,.02,.48,.08,.7,.16l-.03,2.35c-.33-.11-.63-.18-.9-.21-.27-.03-.58-.05-.93-.05-.96,0-1.79,.23-2.5,.69-.71,.46-1.24,1.04-1.6,1.76s-.54,1.48-.54,2.28v9.66h-2.68Z"/>
    <path class="cls-1" d="M217.1,189.26v-2.97h3.26v2.97h-3.26Zm.33,20.1v-16.38h2.64v16.38h-2.64Z"/>
    <path class="cls-1" d="M231,209.66c-1.61,0-2.84-.46-3.69-1.39-.85-.92-1.27-2.32-1.27-4.19v-9.04h-3.2v-2.06h3.2v-4.47l2.64-.75v5.22h4.7v2.06h-4.7v8.75c0,1.31,.22,2.23,.67,2.79,.45,.55,1.11,.83,2.01,.83,.41,0,.78-.04,1.11-.11,.33-.08,.62-.17,.88-.28v2.22c-.3,.13-.67,.23-1.09,.31-.42,.08-.84,.11-1.26,.11Z"/>
    <path class="cls-1" d="M236.15,216.77l-.62-2.19c1.02-.24,1.88-.52,2.56-.83s1.26-.73,1.71-1.26c.46-.52,.85-1.17,1.17-1.96l.85-1.93-.07,1.11-7.15-16.74h2.87l5.91,14.39h-.85l5.84-14.39h2.77l-7.57,17.75c-.44,1.04-.91,1.92-1.44,2.63s-1.08,1.28-1.68,1.73-1.26,.8-1.97,1.06c-.72,.26-1.5,.47-2.35,.62Z"/>
  </g>
</svg>